HIERARCHY
ROOT pelvis
{
  OFFSET 0 0 0
  CHANNELS 6 Xposition Yposition Zposition Zrotation Xrotation Yrotation
  JOINT pelvis_right_femur
  {
    OFFSET -11.43119 -3.542788 0.2090856
    CHANNELS 3 Zrotation Xrotation Yrotation
    JOINT right_femur_tibia
    {
      OFFSET -1.028693 -40.73281 5
      CHANNELS 3 Zrotation Xrotation Yrotation
      JOINT right_tibia_foot
      {
        OFFSET -0.5013517 -42.05707 -5
        CHANNELS 3 Zrotation Xrotation Yrotation
        End Site
        {
          OFFSET 0 -5 10
        }
      }
    }
  }
  JOINT pelvis_left_femur
  {
    OFFSET 11.43119 -3.542788 0.2090856
    CHANNELS 3 Zrotation Xrotation Yrotation
    JOINT left_femur_tibia
    {
      OFFSET 1.028693 -40.73281 5
      CHANNELS 3 Zrotation Xrotation Yrotation
      JOINT left_tibia_foot
      {
        OFFSET 0.3200228 -42.98253 -5
        CHANNELS 3 Zrotation Xrotation Yrotation
        End Site
        {
          OFFSET 0 -5 10
        }
      }
    }
  }
  JOINT pelvis_spine1
  {
    OFFSET 0 8.64413 -3.209807
    CHANNELS 3 Zrotation Xrotation Yrotation
    JOINT spine1
    {
      OFFSET 0 29.53957 -1.762685
      CHANNELS 3 Zrotation Xrotation Yrotation
      JOINT spine2
      {
        OFFSET 0 16.36153 -0.1422377
        CHANNELS 3 Zrotation Xrotation Yrotation
        JOINT neck
        {
          OFFSET 0 11.60093 5
          CHANNELS 3 Zrotation Xrotation Yrotation
          End Site
          {
            OFFSET 0 20 0
          }
        }
      }
      JOINT right_manubrium
      {
        OFFSET -4.671311 15.89868 4
        CHANNELS 3 Zrotation Xrotation Yrotation
        JOINT right_clavicle
        {
          OFFSET -13.601 1.573642 -2.74176
          CHANNELS 3 Zrotation Xrotation Yrotation
          JOINT right_humerus
          {
            OFFSET -0.06331682 -27.72702 2.252146
            CHANNELS 3 Zrotation Xrotation Yrotation
            JOINT right_radius
            {
              OFFSET -0.5696302 -23.92083 0.4042105
              CHANNELS 3 Zrotation Xrotation Yrotation
              End Site
              {
                OFFSET 0 -15 0
              }
            }
          }
        }
      }
      JOINT left_manubrium
      {
        OFFSET 4.671311 15.89868 4
        CHANNELS 3 Zrotation Xrotation Yrotation
        JOINT left_clavicle
        {
          OFFSET 13.601 1.573642 -2.74176
          CHANNELS 3 Zrotation Xrotation Yrotation
          JOINT left_humerus
          {
            OFFSET 0.000209614 -29.01858 1.101395
            CHANNELS 3 Zrotation Xrotation Yrotation
            JOINT left_radius
            {
              OFFSET -0.2288314 -24.59216 1.790347
              CHANNELS 3 Zrotation Xrotation Yrotation
              End Site
              {
                OFFSET 0 -15 0
              }
            }
          }
        }
      }
    }
  }
}
MOTION
Frames: 9
Frame Time: 0.0416666666667
-0.05445067 47.8066 -0.2008669 -2.181276 -22.41068 -0.898616 -49.63525 -60.63557 -37.96874 -180 81.40578 -180 10.65044 2.829193 3.00905 64.18009 -46.96394 52.03641 -180 72.13282 -180 -7.012024 -7.540046 -13.62711 -2.380452 18.28231 0.5235616 10.32995 15.11623 -10.90376 -8.72407 7.630553 4.981008 9.52732 -24.98411 -1.304739 20.48787 -13.0629 26.10171 -61.86996 -29.8382 10.68729 0 -75.66878 0 2.01023 -22.16664 -5.640021 -28.3629 -35.55678 -8.476483 53.3258 -23.2185 -31.29562 0 -77.0207 0 -20.77649 -6.33512 -2.743012
-0.07051466 47.79201 -0.1786167 -2.047017 -22.38656 -0.8862225 -49.75808 -60.73214 -37.9442 -180 81.34358 -180 10.66327 2.797187 2.975244 64.08672 -46.93829 52.06107 -180 72.13979 -180 -6.997771 -7.514735 -13.63128 -2.359613 18.38614 0.3024931 10.36589 15.20532 -11.19916 -8.582357 7.927375 3.593075 9.867821 -24.63808 -3.249853 20.17248 -14.7326 25.31103 -63.47446 -28.32317 8.683128 0 -74.96984 0 1.645384 -22.89964 -5.731696 -28.22801 -35.88198 -7.59464 54.11039 -22.34242 -30.98376 0 -76.60835 0 -21.359 -4.673819 -5.077941
-0.08552951 47.77994 -0.162141 -1.910789 -22.3383 -0.8005506 -49.91976 -60.79752 -37.94573 -180 81.27876 -180 10.67892 2.735574 2.928604 64.01719 -46.97032 52.12666 -180 72.14716 -180 -6.985723 -7.48548 -13.65716 -2.286049 18.55737 0.1756607 10.28979 15.30621 -11.51959 -8.360983 8.251439 2.035975 10.27425 -24.36755 -5.390115 19.81737 -16.80084 24.44864 -65.31476 -26.63501 6.385174 0 -73.3072 0 1.346733 -23.45342 -5.778424 -28.10931 -36.30433 -6.496205 55.10127 -21.18222 -30.38282 0 -75.69539 0 -21.62128 -2.784192 -7.438789
-0.1101968 47.76293 -0.1378342 -1.773932 -22.26588 -0.6640404 -50.13918 -60.85436 -38.0245 -180 81.19289 -180 10.70357 2.654498 2.867739 63.99596 -47.0369 52.24176 -180 72.15873 -180 -6.969556 -7.445114 -13.70477 -2.151124 18.82867 0.1016874 10.0933 15.40829 -11.81196 -8.154681 8.503507 0.5308029 10.71702 -24.24033 -7.46947 19.36144 -19.14935 23.68766 -67.251 -24.84453 4.023003 0 -70.42583 0 1.163106 -23.7384 -5.809316 -27.93605 -36.68688 -5.414163 56.23206 -19.8241 -29.72586 0 -74.24003 0 -21.71718 -0.7708887 -9.732506
-0.1406462 47.7678 -0.12039 -1.660612 -22.14149 -0.5090499 -50.38678 -60.90297 -38.14543 -180 81.10532 -180 10.72416 2.56608 2.823431 64.04817 -47.10819 52.42611 -180 72.17643 -180 -6.951035 -7.399506 -13.7801 -1.917793 19.22432 0.06058249 9.760953 15.50384 -12.01231 -8.029826 8.619511 -0.7408212 11.15705 -24.27207 -9.267662 18.78932 -21.64498 23.12876 -69.16926 -23.03012 1.786859 0 -66.27423 0 1.133251 -23.72913 -5.836118 -27.72703 -36.9803 -4.519285 57.40332 -18.38017 -29.11476 0 -72.57637 0 -21.77911 1.161906 -11.92113
-0.155321 47.75823 -0.07497599 -1.563725 -22.00827 -0.384163 -50.6903 -60.95239 -38.3534 -180 81.02487 -180 10.7389 2.480948 2.810006 64.1295 -47.16411 52.64442 -180 72.19623 -180 -6.939306 -7.357633 -13.85104 -1.590404 19.69967 0.06459356 9.247636 15.60849 -12.04736 -7.986823 8.656673 -1.772018 11.56961 -24.4459 -10.76608 18.1346 -24.17254 22.81624 -70.92632 -21.26187 -0.1956737 0 -60.91365 0 1.281755 -23.40079 -5.872962 -27.47351 -37.15844 -3.719191 58.50006 -16.94769 -28.58945 0 -71.46785 0 -21.85876 2.758843 -14.05114
-0.1739606 47.78096 -0.03653266 -1.458018 -21.91275 -0.2980229 -50.96812 -60.94107 -38.56147 -180 80.96525 -180 10.73848 2.411308 2.840437 64.11274 -47.1677 52.75478 -180 72.22123 -180 -6.931451 -7.310459 -13.89266 -1.078838 20.06376 0.1898275 8.537109 15.67627 -11.72555 -8.149391 8.976773 -2.59771 11.84071 -24.5595 -12.09958 17.47771 -26.54196 22.75751 -72.43572 -19.53921 -1.834371 0 -54.64411 0 1.61244 -22.80014 -5.902819 -27.25634 -37.57344 -3.048595 59.20779 -16.09279 -28.05023 0 -72.40905 0 -21.87385 3.659229 -16.24937
-0.1713183 47.82234 0.01739108 -1.386528 -21.82939 -0.3210795 -51.22912 -60.90206 -38.81571 -180 80.95329 -180 10.71897 2.347386 2.946103 64.05317 -47.13475 52.76212 -180 72.24375 -180 -6.929001 -7.269945 -13.88436 -0.4651096 20.44702 0.2610699 7.770143 15.76934 -11.29161 -8.489245 9.336089 -3.274215 11.98981 -24.73946 -13.29493 16.92963 -28.78703 23.10074 -73.66778 -18.11474 -3.166069 0 -48.12403 0 2.090266 -22.06326 -5.885521 -26.95338 -37.79154 -2.512532 59.70789 -15.43232 -27.78225 0 -73.83307 0 -21.89998 4.287761 -18.28271
-0.1805003 47.87042 0.09272744 -1.336896 -21.75834 -0.3952339 -51.47473 -60.80567 -39.12807 -180 80.96596 -180 10.69411 2.285404 3.099628 63.96538 -47.12886 52.65204 -180 72.24356 -180 -6.925454 -7.227127 -13.80884 0.2408591 20.85784 0.254212 7.031651 15.81471 -10.89518 -8.999661 9.651551 -3.753529 12.01268 -24.96703 -14.28143 16.6189 -30.88861 23.87105 -74.59851 -17.04213 -4.251574 0 -41.79668 0 2.669914 -21.28334 -5.811975 -26.78301 -37.82544 -2.442733 60.02509 -14.9598 -27.79454 0 -75.07051 0 -21.91824 4.828715 -20.1002
